<?xml version="1.0" standalone="no"?><!DOCTYPE svg PUBLIC "-//W3C//DTD SVG 1.1//EN" "http://www.w3.org/Graphics/SVG/1.1/DTD/svg11.dtd"><svg t="1585707187148" class="icon" viewBox="0 0 1024 1024" version="1.1" xmlns="http://www.w3.org/2000/svg" p-id="4223" xmlns:xlink="http://www.w3.org/1999/xlink" width="200" height="200"><defs><style type="text/css"></style></defs><path d="M391.04 335.952c43.408 0 199.008 233.104 199.008 324.56C590.048 772.704 501.136 864 391.04 864S192 772.704 192 660.512c0-91.456 155.6-324.56 199.04-324.56z m-0.016 55.68l-3.584 3.904c-2.56 2.832-5.28 5.984-8.176 9.392l-2.944 3.488c-17.952 21.488-38.72 49.328-57.84 78-47.824 71.616-77.92 136.368-77.92 174.08 0 85.984 67.568 155.344 150.464 155.344s150.464-69.36 150.464-155.328c0-37.728-30.096-102.48-77.92-174.096-19.12-28.672-39.888-56.512-57.824-78a439.68 439.68 0 0 0-13.6-15.616l-1.12-1.168zM307.84 629.216c12.96 0 13.968 10.512 14.56 13.92 5.984 34.992 34.176 62.48 69.696 67.728 4.032 0.592 12.368 2.48 12.368 14.864v23.168c0 11.44-9.536 10.72-12.24 10.48-62.288-5.68-112.016-54.336-118.784-115.808-0.528-4.704 0-14.352 13.344-14.352z m432.672-53.328c50.528 0 91.488 40.64 91.488 90.736 0 50.112-40.96 90.736-91.488 90.736s-91.504-40.624-91.504-90.72c0-50.128 40.96-90.752 91.504-90.752z m0 48.16c-23.712 0-42.928 19.072-42.928 42.576 0 23.52 19.216 42.56 42.928 42.56 23.696 0 42.912-19.04 42.912-42.56 0-23.504-19.2-42.56-42.912-42.56zM659.872 176c80.208 0 145.248 64.48 145.248 144.048s-65.04 144.064-145.264 144.064-145.264-64.496-145.264-144.064c0-79.552 65.04-144.048 145.28-144.048z m0 48.16c-53.408 0-96.704 42.944-96.704 95.888 0 52.96 43.296 95.888 96.688 95.888 53.408 0 96.688-42.928 96.688-95.888 0-52.96-43.28-95.888-96.688-95.888z" p-id="4224" fill="#8a8a8a"></path></svg>